<?xml version="1.0" encoding="UTF-8"?>
<svg id="Layer_1" xmlns="http://www.w3.org/2000/svg" version="1.1" viewBox="0 0 1280 1024">
  <!-- Generator: Adobe Illustrator 29.6.1, SVG Export Plug-In . SVG Version: 2.1.1 Build 9)  -->
  <path d="M279.57,682.09c-9.54,2.01-17.77,2.96-24.7,2.84-9.3-.18-17.27-2.68-23.9-7.51-6.64-4.83-11.2-12.32-13.68-22.48-2.49-10.16-2.61-20.87-.36-32.12,2.25-11.25,5.73-20.11,10.44-26.57,4.71-6.46,4.86-5.55.44,2.71-4.41,8.26-6.62,20.2-6.62,35.81s5.46,25.69,16.39,30.26c10.93,4.56,24.8,5.3,41.63,2.22.36-.06.74-.12,1.16-.18,16.41-3.14,32.94-8.29,49.58-15.46,17.06-7.34,25.59-13.39,25.59-18.13-.71-3.02-3.76-8.86-9.15-17.5-5.39-8.65-9.01-16.05-10.84-22.21-1.84-6.16-4.35-11.88-7.55-17.15l5.86-12.79c18.6,24.52,22.04,32.58,10.31,24.17-.24,2.55,2.37,8.12,7.82,16.7,5.45,8.59,7.88,16.47,7.29,23.64-.59,7.17-2.53,13.45-5.82,18.84-3.29,5.39-11.27,11.21-23.95,17.46-12.68,6.25-25.95,11.24-39.81,14.97-3.55.95-6.93,1.78-10.13,2.49ZM287.84,630.91l-11.91-11.2,10.31-11.02,11.91,11.11-10.31,11.11Z"/>
  <path d="M601.29,621.39c-15.94-6.63-28.03-9.3-36.3-8-8.26,1.3-14.71,7.52-19.33,18.66,15.99.24,27.78.24,35.36,0l1.78-1.42c5.69,2.13,15.99,4.74,30.92,7.82-11.42,4.11-23.04,7.69-34.83,10.56-9.38,2.28-19.01,5.11-28.78,4.38-7.32-.54-19.23-3.77-21.42-12.1.24-1.24.36-1.95.36-2.13,0-.77-.24-1.16-.71-1.16h-.8l-.71.44c-6.69,12.03-12.01,18.26-15.95,18.7-3.94.44-7.39-.15-10.35-1.78-2.96-1.63-4.44-5.35-4.44-11.15,1.72-2.49,2.58-4.18,2.58-5.06v-.71c0-.53-.24-.8-.71-.8-1.36,0-5.36,3.57-12,10.71-6.64,7.14-14.48,10.8-23.55,10.97-9.06.18-13.57-6.31-13.51-19.46,0-.47-.24-.71-.71-.71h-1.16c-.74,0-3.23,2.94-3.91,3.48-1.56,1.26-3.19,2.43-4.89,3.51-3.39,2.15-7.05,3.93-10.86,5.22-8.54,2.9-17.86,3.76-26.16-.33-6.34-3.12-10.48-8.68-11.41-15.71-1.42-10.78-2.75-29.48-4-56.11-1.24-26.63-3.39-48.84-6.44-66.64-3.05-17.8-5.58-26.67-7.6-26.61l-4.09,15.37c4.09,14.28,6.77,33.63,8.04,58.07,1.27,24.43,3.33,51.76,6.18,81.97,1.16,12.31,10.77,25.01,23.3,27.33,13.03,2.41,28.44-7.17,37.12-16.04h.71c.95,10.25,4.56,16.62,10.84,19.1,6.28,2.49,13.02,1.91,20.21-1.73,7.2-3.64,13.2-9.91,17.99-18.79-.47,1.66-.71,3.11-.71,4.35v2.22c0,1.42.59,3.23,1.78,5.42,3.79,5.39,8.49,7.89,14.08,7.51,5.6-.39,11.03-6.18,16.3-17.37h.71c.24,2.43,2.5,5.7,6.8,9.82,4.29,4.12,10.62,5.94,18.97,5.44,19.07-2.61,38.06-7.22,56.95-13.83,23.87-5.92,41.29-8.89,52.25-8.89l6.4-13.15c-21.86,0-43.3-3.79-64.33-11.37Z"/>
  <path d="M714.88,705.01c-.96.15-1.59.22-1.88.22-1.34,0-2.51-.52-3.51-1.57-1.29-1.17-2.11-2.48-2.44-3.95.17-.79,1.06-1.46,2.69-2,1.63-.54,2.69-.81,3.19-.81,1.5,0,2.4.88,2.69,2.63l3.76-5.51c-.33-1.42-1.67-2.13-4.01-2.13s-4.68.93-7.01,2.79c-2.13,1.7-5.08,4.42-5.49,7.29-.18,1.23.27,2.77.79,3.87.14.3,2.05,3.15,2.38,2.84-2.13,2-3.31,3.52-3.54,4.54-.23,1.02-.34,1.7-.34,2.04,0,.38.1.56.31.56.08,0,.21-.04.38-.13.67-.42,1.72-.99,3.16-1.72,1.44-.73,6.31-2.68,14.62-5.86l3.44-6.14c-5.18,1.88-8.25,2.89-9.21,3.04Z"/>
  <path d="M752.59,498.81c1.3,5.48,3.32,22.64,6.04,51.5,2.72,28.85,4.09,49.49,4.09,61.92s-2.83,23.38-8.49,32.86c-5.66,9.48-6.96,9.86-3.91,1.12,3.05-8.73,4.58-19.04,4.58-30.92s-4.38-56.41-13.15-133.61l5.95-10.55c14.93,39.38,16.56,48.6,4.89,27.67Z"/>
  <path d="M785.92,583.82l10.75,8.89c.24.24.36.48.36.71s-.09.47-.27.71l-7.2,8.97c-.18.36-.42.53-.71.53-.18,0-.39-.12-.62-.36l-10.84-8.89c-.24-.24-.36-.47-.36-.71s.12-.5.36-.8l7.2-8.89c.24-.3.47-.44.71-.44s.44.09.62.27Z"/>
  <path d="M804.93,583.82l10.75,8.89c.24.24.36.48.36.71s-.12.47-.36.71l-7.11,8.97c-.24.36-.47.53-.71.53s-.47-.12-.71-.36l-10.75-8.89c-.24-.24-.36-.47-.36-.71s.12-.5.36-.8l7.2-8.89c.24-.3.47-.44.71-.44.18,0,.39.09.62.27Z"/>
  <path d="M883.26,684.03c-.24-.18-.44-.27-.62-.27-.24,0-.47.15-.71.44l-7,8.65-10.68-8.82c-.18-.18-.39-.27-.62-.27s-.47.15-.71.44l-7.2,8.89c-.24.3-.36.56-.36.8s.12.47.36.71l10.84,8.89c.24.24.44.36.62.36.3,0,.53-.18.71-.53l6.93-8.64,10.67,8.82c.24.24.47.36.71.36s.47-.18.71-.53l7.11-8.97c.24-.24.36-.48.36-.71s-.12-.47-.36-.71l-10.75-8.89Z"/>
  <polygon points="998.27 613.3 986.36 602.2 976.06 613.22 987.96 624.41 998.27 613.3"/>
  <polygon points="1034.31 594.82 1045.24 605.1 1055.55 593.99 1043.64 582.89 1034.85 592.29 1023.92 582.09 1013.61 593.11 1025.52 604.3 1034.31 594.82"/>
  <path d="M1040.45,621.83l-5.15,13.06c5.03,7.05,8.09,12.47,9.15,16.26-4.33,1.36-8.01,2.21-11.06,2.53-3.05.33-5.69-.44-7.91-2.31-2.22-1.87-3.9-5.23-5.02-10.09.53-.95.83-2.25.89-3.91v-.36c0-.41-.24-.65-.71-.71h-.36c-2.43,2.73-8.71,6.46-18.84,11.2-9.78,4.54-21.62,6.84-35.51,6.92-11.64-.28-20.95-2.94-27.93-7.98-3.65-2.64-8.35-10.31-13.35-7.9-6.04,2.91-8.93,9.54-14.8,12.39-4.81,2.33-10.26,3.2-15.55,3.5-9.99.57-24.58-3.02-21.45-15.56.24-.97-.86-1.72-1.68-1.13-2.97,2.15-4.91,5.43-7.71,7.82-8.81,7.51-22.98,11.28-34.03,6.75-11.39-4.67-15.85-17.1-22.26-26.64-.61-.91-1.26-1.83-2.16-2.45-2.03-1.39-5.02-.23-7.15.31-8.41,2.84-16.23,9.48-23.46,19.9l-12.79,26.3c-4.74,7.58-9.36,11.37-13.86,11.37-3.55,0-6.87-2.37-9.95-7.11-4.09-8.41-6.18-16.75-6.26-25.01-.09-8.26-.13-13.55-.13-15.86-.18-1.18-.53-1.78-1.07-1.78-2.84.18-3.55,7.52-2.13,22.04,1.42,14.51,3.88,25.01,7.38,31.5,3.49,6.49,7.91,9.73,13.24,9.73h1.42c3.97,0,8.35-3.79,13.15-11.37,5.8-14.81,10.07-24.52,12.8-29.14,8.12-11.85,16.41-17.77,24.88-17.77h.71c2.9,2.78,7.2,8.87,12.88,18.26,3.02,4.98,7.27,9.15,12.62,11.54,2.67,1.19,5.52,1.92,8.41,2.27,5.56.68,11.44-1.82,16.29-4.32,5.24-2.71,9.93-6.38,13.85-10.77h.36c5.54,9.98,14.84,15.08,27.9,15.37.18,0,.37,0,.56-.01.17,0,.34.01.51-.01,6.8-.34,15.12-5.48,24.97-15.44l-.27,2.67c-.59,4.98.95,9.86,4.62,14.66,2.81,3.55,5.91,7.13,9.69,9.7,2.29,1.55,6.85,4.23,7.12-.36.33-5.68.64-11.14.17-16.8,2.96,1.66,6.44,2.96,10.44,3.91,3.81.9,8.26,1.45,13.28,1.65v.04c.16,0,.32-.01.47-.01.08,0,.16,0,.24,0,16.19-.23,32.95-6.32,50.29-18.29,2.49,9.72,5.87,15.48,10.13,17.28,4.26,1.81,8.65,1.02,13.15-2.36,4.5-3.38,7.31-7.24,8.44-11.6,1.12-4.35,1.24-8.96.36-13.82-.89-4.86-3.5-10.87-7.82-18.04Z"/>
  <path d="M813.06,491.24c0-.33-.11-.55-.33-.66-.55,0-1.92,1.48-4.11,4.44-10.3,14.13-30.89,39.59-61.77,76.39-27.05,32.31-44.03,52.19-50.93,59.64-4.38-6.02-11.39-13.58-21.03-22.67-11.83-11.39-21.09-20.81-27.76-28.26-19.39-22.01-31.38-37.84-35.98-47.48,4.16,1.54,7.06,2.3,8.71,2.3,1.09,0,1.64-.27,1.64-.82,0-.99-1.15-2.41-3.45-4.27l-22.84-19.22c-1.31-1.09-2.25-1.64-2.79-1.64-.77,0-1.15,1.1-1.15,3.29v10.68c0,1.1.49,1.86,1.48,2.3,1.42.88,2.79,2.41,4.11,4.6,12.7,21.69,26.39,40.8,41.07,57.34,6.79,7.78,16.32,17.58,28.59,29.41,10.19,9.64,17.52,17.47,22.01,23.49-12.05,15.55-18.07,30.01-18.07,43.37,0,8.76,3.45,13.14,10.35,13.14,4.49,0,9.42-1.75,14.79-5.26,4.49-3.06,7.61-5.97,9.36-8.71,1.09-1.64,2.16-4.27,3.2-7.89,1.04-3.61,1.56-6.46,1.56-8.54,0-5.37-.22-8.93-.66-10.68-.99-4.6-3.78-10.46-8.38-17.58,62.21-72.39,98.51-117.52,108.92-135.37,2.3-6.24,3.45-10.02,3.45-11.34ZM702.01,659.14c2.63,3.94,3.94,6.85,3.94,8.71,0,1.42-2.9,3.89-8.71,7.39-6.24,3.61-11.28,5.42-15.11,5.42-4.27,0-6.41-1.59-6.41-4.76,0-6.02,5.97-15.5,17.91-28.42,2.74,3.94,5.53,7.83,8.38,11.66Z"/>
  <path d="M436.13,518.42c-.12,1.96-.41,3.92-.85,5.84-.36,1.55-.84,3.06-1.42,4.54-.06.13-.11.27-.17.41-.28.66-.58,1.34-.91,2.02-.15.3-.3.6-.45.9-.56,1.1-1.15,2.18-1.81,3.23-.5.8-1.03,1.61-1.68,2.32-.14.15-.3.31-.47.45-.11.09-.22.2-.36.27-.19.1-.35.04-.22-.17.59-.99,1.1-1.99,1.55-3.04.4-.93.75-1.87,1.05-2.83.38-1.18.69-2.38.94-3.58.29-1.41.49-2.83.6-4.26.13-1.61.14-3.23.04-4.84-.11-1.8-.36-3.59-.74-5.35-.14-.66-.35-1.32-.49-1.98-2.1-9.76-8.02-18.37-16.39-26.18.14-3.91.21-5.89,1.02-9.36,0,.25,2.15,1.82,2.42,2.07.9.8,1.78,1.64,2.63,2.49,9.92,9.96,16.56,23.33,15.7,37.05Z"/>
  <path d="M259.9,473.75c-.85-.12-1.64.8-2.12,1.6-9.94,16.83-19.57,33.92-27.25,51.92-6.98,16.37-14.25,33.74-14.11,51.87.06,8.21,2.56,16.02,8.36,21.96,3.01,3.09,10.71,10.2,14.92,6.03,4.58-4.53,6.6-11.14,7.98-17.28.47-2.09.82-4.2,1.05-6.33.1-.93.47-2.35.24-3.26-.16-.65-.73-1.09-1.21-.2-.57,1.07-1.06,2.18-1.56,3.29-1.01,2.23-1.73,4.4-3.25,6.37-.32.41-.77.77-1.28.76-.28,0-.54-.11-.79-.23-14.01-6.24-16.5-22.56-13.75-36.15.47-2.31,1.08-4.6,1.83-6.83,8.47-25.22,20.57-49.11,31.23-73.42-.1-.04-.2-.07-.29-.09"/>
  <path d="M891.17,577.34c-.14.32-.38,1.3-.09,1.44.12.06,1.75-2.17,3.36-2.97,2.98-1.48,7.99,1.97,7.99,1.97,4.61,2.55,3.19,2.25,1.73,2.31-5.91.22-10.4,3.32-10.4,3.32-5.89,3.48-1.36,14.27-1.36,14.27,4.58,9.83,6.85,23.95,7.05,29.31.19,4.99-.46,9.08.09,10.33.92,2.07,1.82-7.57,1.82-7.57.56-4.33-.31-10.71-.31-10.71-.28-7.34-5.18-21.61-6.59-25.53-.78-2.16-.12-3.49.63-4.26.61-.63,1.96-1.51,2.45-1.78,2.56-1.4,7.57-1.81,9.93-1.93.8-.04,1.51-.57,1.86-1.38l1.67-3.84c.38-.88.24-1.95-.37-2.66-3.1-3.64-9.7-6.08-9.7-6.08-5.55-2.63-8.97,4.04-9.75,5.76Z"/>
  <path d="M1064.68,487.38l-7.84,10.72c-68.72,16.48-136.6,36.28-203.58,58.65,2.2-3.87,4.31-7.87,7.24-11.24,66.86-23.17,135.2-42.12,204.17-58.12Z"/>
  <path d="M660.34,467.05l-4.52,8.6c-65.45,17.96-130.66,37.54-194.44,60.71-14.09,5.12-29.7,10.41-43.2,16.72-1.77.83-10.97,5.11-10.97,6.51,3.78,4.13,8.83,6.77,14.07,8.48l-1.97,8.01c-12.19-3.13-19.76-9.02-13.28-22.36,2-4.11,7.68-6.52,11.69-8.5,16.77-8.28,37.32-14.69,55.1-20.97,61.55-21.76,123.98-41.9,187.52-57.19Z"/>
  <path d="M1036.41,470.13l-4.17,7.59c-58.64,14.96-117.09,31.37-174.32,51-12.64,4.34-26.64,8.81-38.78,14.21-1.59.71-9.86,4.38-9.89,5.63,3.3,3.74,7.76,6.17,12.4,7.79l-1.89,7.11c-10.82-2.99-17.47-8.36-11.48-20.15,1.85-3.63,6.96-5.69,10.56-7.39,15.08-7.11,33.51-12.5,49.46-17.81,55.22-18.41,111.2-35.37,168.09-47.98Z"/>
  <path d="M624.7,375.86c-.23-.79-1.23-1.43-1.87-1.86-.85-.58-1.79-1.22-2.87-1.15-1.22.07-2.41.92-3.17,1.84-.63.76-1.1,1.64-1.46,2.56-.85,2.13-1.19,4.44-1.4,6.71s-.27,4.52-.34,6.78c-.03,1.01-.07,2.02-.14,3.03-.02.23-.16,2.62-.34,2.66-.29.05-.33-.38-.37-.59-1.14-5.5-2.87-11.67-6.43-16.14-.92-1.16-4.1-4.18-5.62-3.29-1.21.71-2.13,5.34-2.07,6.68.13,2.8,2.27,3.03,4.04,4.33.79.58,1.46,1.23,2.05,2.01.65-.25.69-3.31,1.39-2.78,1.78,3.1,3.42,6.16,4.4,9.63.27.95.75,4.46,1.15,5.01.34.46.82.4,1.19-.03.81-.96,1.23-2.37,1.54-3.56.41-1.62.62-3.29.72-4.95.22-3.74-.84-11.64,3.02-13.7,1.95-1.04,4.6,1.12,5.45,2.88.38.09.52-.42.6-.68.32-.93.78-4.52.53-5.39Z"/>
  <path d="M711.43,523.07c-.37-1.25-1.95-2.26-2.95-2.95-1.35-.92-2.83-1.93-4.55-1.83-1.94.12-3.81,1.45-5.02,2.91-1,1.2-1.74,2.6-2.32,4.05-1.35,3.37-1.88,7.03-2.21,10.62-.33,3.57-.42,7.15-.54,10.73-.05,1.6-.11,3.2-.22,4.8-.02.37-.25,4.16-.54,4.21-.46.09-.52-.61-.58-.93-1.81-8.7-4.55-18.48-10.18-25.56-1.46-1.84-6.49-6.62-8.91-5.2-1.91,1.12-3.38,8.45-3.28,10.58.21,4.44,3.59,4.8,6.4,6.86,1.25.92,2.32,1.95,3.25,3.19,1.03-.39,1.09-5.24,2.2-4.4,2.82,4.91,5.41,9.76,6.97,15.26.43,1.5,1.19,7.07,1.83,7.94.54.74,1.3.64,1.88-.05,1.28-1.51,1.95-3.75,2.44-5.64.66-2.56.98-5.21,1.13-7.85.35-5.92-1.34-18.43,4.78-21.69,3.08-1.64,7.28,1.77,8.63,4.55.6.15.82-.67.96-1.07.51-1.48,1.24-7.16.83-8.53Z"/>
  <path d="M318.74,512.41c-.37-1.25-1.95-2.26-2.95-2.95-1.35-.92-2.83-1.93-4.55-1.83-1.94.12-3.81,1.45-5.02,2.91-1,1.2-1.74,2.6-2.32,4.05-1.35,3.37-1.88,7.03-2.21,10.62-.33,3.57-.42,7.15-.54,10.73-.05,1.6-.11,3.2-.22,4.8-.02.37-.25,4.16-.54,4.21-.46.09-.52-.61-.58-.93-1.81-8.7-4.55-18.48-10.18-25.56-1.46-1.84-6.49-6.62-8.91-5.2-1.91,1.12-3.38,8.45-3.28,10.58.21,4.44,3.59,4.8,6.4,6.86,1.25.92,2.32,1.95,3.25,3.19,1.03-.39,1.09-5.24,2.2-4.4,2.82,4.91,5.41,9.76,6.97,15.26.43,1.5,1.19,7.07,1.83,7.94.54.74,1.3.64,1.88-.05,1.28-1.51,1.95-3.75,2.44-5.64.66-2.56.98-5.21,1.13-7.85.35-5.92-1.34-18.43,4.78-21.69,3.08-1.64,7.28,1.77,8.63,4.55.6.15.82-.67.96-1.07.51-1.48,1.24-7.16.83-8.53Z"/>
  <path d="M524.77,558.07c8.52,2.2,20.97,2.61,19.06,14.58-.89,5.57-3.62,8.37-8.65,10.56-21.42,9.32-15.45-19.82-10.41-30.52,1.71.61-.63,4.65,0,5.38ZM523.55,566.5c-3.13,12.88,8.66,11.99,16.21,6.3.67-2.86-13.67-6.3-16.21-6.3Z"/>
  <path d="M973.74,550.21c7.72,1.99,19,2.37,17.26,13.21-.81,5.05-3.28,7.58-7.83,9.57-19.4,8.44-13.99-17.95-9.43-27.65,1.55.55-.57,4.21,0,4.87ZM972.64,557.84c-2.83,11.66,7.84,10.86,14.68,5.7.6-2.59-12.39-5.71-14.68-5.7Z"/>
  <path d="M803.8,394.28c-.43-5.05-2.53-9.77-6.32-14.18-4.49-4.83-8.15-7.25-10.99-7.25s-5.39,1.25-7.66,3.74c-2.26,2.49-3.76,5.46-4.5,8.9-.74,3.44.05,5.91,2.35,7.4,2.3,1.49,4.74,2.15,7.31,1.97,2.57-.17,5.58-.38,9.02-.61,3.44-.23,5.51,1.61,6.21,5.51-.23,1.62-6.21,6.34-17.93,14.15-11.72,7.81-24.49,14.82-38.31,21.03-13.83,6.21-28.51,11.73-44.06,16.56v.17l.23.46c23.78-1.93,40.54-5.39,50.27-10.35,9.73-4.97,20.28-10.98,31.67-18.04,11.39-7.06,18.13-12.47,20.22-16.24,2.09-3.77,2.92-8.18,2.49-13.23ZM791.33,386.02h-.23c-.58,0-2.57-.12-5.97-.35-3.4-.23-5.49-.93-6.27-2.09,0-.89,1.4-1.55,4.21-1.97,2.8-.43,5.56.97,8.27,4.18v.23Z"/>
  <path d="M683.84,358.35c.16.16.3.24.42.24.2,0,.36-.12.48-.36l4.89-6.09c.12-.16.18-.32.18-.48s-.08-.32-.24-.48l-7.3-6.03c-.12-.12-.26-.18-.42-.18s-.32.1-.48.3l-4.88,6.03c-.16.2-.24.38-.24.54s.08.32.24.48l7.36,6.03Z"/>
  <path d="M719.98,361.79c.16.16.3.23.42.23.2,0,.37-.12.49-.36l4.69-5.86,7.24,5.99c.16.16.32.23.49.23.16,0,.32-.12.48-.36l4.82-6.09c.16-.16.24-.32.24-.48s-.09-.33-.24-.49l-7.3-6.03c-.16-.12-.29-.17-.42-.17-.16,0-.32.1-.48.3l-4.75,5.86-7.26-5.99c-.12-.12-.26-.17-.42-.17s-.32.1-.49.3l-4.88,6.03c-.16.2-.24.37-.24.53,0,.17.09.33.24.49l7.36,6.03Z"/>
  <path d="M703.71,418.75c7.07,3.69,13.84,2.94,21.2.76,5.59-1.66,11.85-3.77,16.1-7.98,4.19-4.15,6.29-8.54,6.29-13.2s-1.91-10.45-5.76-17.34c-3.83-6.9-8.55-9.85-14.14-8.87s-8.87,5.05-9.86,12.21c-.98,7.16,2.02,10.8,9,10.94,6.97.14,11.35.56,13.15,1.27,1.79.71,2.63,2.42,2.56,5.15v.24c0,1.78-7.35,4.81-8.51,5.26-6.48,2.5-12.93,5.11-20.06,4.58-3.13-.23-6.33-.78-9.16-2.18-.55-.27-6.04-3.98-5.29-4.76,2.89-2.98,4.97-6.35,6.21-10.11,1.25-3.76,1.02-8.9-.66-15.43-1.68-6.54-4.36-10.17-8.02-10.88-3.66-.72-6.26.48-7.8,3.59-1.55,3.12-2.39,7.07-2.51,11.85,0,4.46,1.37,9.82,4.1,16.04v.24c-7.65,4.35-17.57,8.01-29.79,10.97-52.73,12.79-113.02,9.91-165.95-.92-3.8-.78-7.63-1.61-11.5-2.46-3.08-.65-5.15-.96-6.23-.96-.65,0-.96.1-.96.32,0,.5,2.04,1.83,6.12,3.97,9.39,4.81,18.24,8.81,26.56,12.04,2.72,1.08,16.47,4.05,36.74,5.34,41.49,2.34,80.73,2.54,121.13-9.11,4.59-1.32,9.82-3.18,15.71-5.57,5.89-2.4,9.86-4.23,11.91-5.53-.5.32,3.35,5.62,3.78,6.11,1.59,1.82,3.52,3.32,5.66,4.43ZM721.3,383.49c1.25-1.28,3.15-1.86,5.7-1.71,2.55.14,4.98,1.48,7.27,4.02-7.96-.24-12.28-1.01-12.97-2.3ZM695.36,397.73c-4.26-7.85-6.29-13.09-6.09-15.75.2-2.65,1.17-4.32,2.92-5.02,1.74-.71,3.86.5,6.34,3.64,2.46,3.14,3.83,6.84,4.06,11.1-1.48,2.09-3.9,4.1-7.23,6.03Z"/>
  <path d="M798.88,351.41c.99-.71,2.04-2.28,3.15-4.7.46-.95.53-1.48.22-1.63-.22-.09-1.11.07-2.69.51-12.91,3.55-25.49,7.75-37.78,12.57-1.54,2.56-2.74,4.95-3.61,7.18,5.05-1.86,9.19-3.44,12.41-4.7,13.08-4.31,22.53-7.4,28.31-9.25Z"/>
  <path d="M961.85,697.92c.99-.71,2.04-2.28,3.15-4.7.46-.95.53-1.48.22-1.63-.22-.09-1.11.07-2.69.51-12.91,3.55-25.49,7.75-37.78,12.57-1.54,2.56-2.74,4.95-3.61,7.18,5.05-1.86,9.19-3.44,12.41-4.7,13.08-4.31,22.53-7.4,28.31-9.25Z"/>
  <path d="M723.52,329.49c3.51-1.53,5.41-3.48,6.04-7.37,1.34-8.35-7.35-8.64-13.3-10.18-.44-.51,1.19-3.33,0-3.75-3.51,7.47-7.68,27.81,7.27,21.3ZM715.41,317.82c1.77,0,11.78,2.4,11.31,4.39-5.27,3.97-13.5,4.59-11.31-4.39Z"/>
</svg>